# xmcd
#
# Track frame offsets: 
#        150
#        14190
#        26285
#        36247
#        53395
#        64707
#        75245
#        89492
#        100450
#        118290
#        131425
#        142677
#        156665
#        169642
#        188075
#        198500
#        209305
#        220967
#        232210
#        245485
#        255682
#
# Disc length: 3588 seconds
#
# Revision: 2
# Processed by: cddbd v1.5.2PL0 Copyright (c) Steve Scherf et al.
# Submitted via: ExactAudioCopyFreeDBPlugin 1.0
#
DISCID=2b0e0215
DTITLE=Ann Peebles - Ann Peebles:  St. Louis Woman - Memphis Soul [Hi 
DTITLE=Records box set]
DYEAR=1996
DGENRE=Soul
TTITLE0=Beware
TTITLE1=Crazy About You Baby
TTITLE2=I'll Get Along
TTITLE3=Heartaches
TTITLE4=Rescue Me
TTITLE5=99 lbs.
TTITLE6=Dr. Love Power
TTITLE7=What You Laid on Me
TTITLE8=Let Your Lovelight Shine
TTITLE9=Part Time Love
TTITLE10=Love Played a Game
TTITLE11=Old Man with Young Ideas
TTITLE12=Chain of Fools
TTITLE13=I Didn't Take Your Man
TTITLE14=My Man He's a Lovin' Man
TTITLE15=Somebody's on Your Case
TTITLE16=It's Your Thing
TTITLE17=Slipped, Tripped and Fell in Love
TTITLE18=It Must Be Love
TTITLE19=Respect
TTITLE20=How Strong is a Woman
EXTD=
EXTT0=
EXTT1=
EXTT2=
EXTT3=
EXTT4=
EXTT5=
EXTT6=
EXTT7=
EXTT8=
EXTT9=
EXTT10=
EXTT11=
EXTT12=
EXTT13=
EXTT14=
EXTT15=
EXTT16=
EXTT17=
EXTT18=
EXTT19=
EXTT20=
PLAYORDER=
